<svg xmlns="http://www.w3.org/2000/svg" width="2048" height="1024" viewBox="0 0 2048 1024">
  <defs>
    <linearGradient id="ocean" x1="0" y1="0" x2="0" y2="1">
      <stop offset="0%" stop-color="#0b1220" />
      <stop offset="100%" stop-color="#101a2e" />
    </linearGradient>
  </defs>
  <rect width="2048" height="1024" fill="url(#ocean)" />
  <g fill="#1f2a44">
    <path d="M170 360 L400 280 L560 340 L600 460 L500 520 L340 500 Z" />
    <path d="M820 260 L1140 240 L1260 360 L1200 520 L960 560 L820 420 Z" />
    <path d="M1320 600 L1600 560 L1800 640 L1820 760 L1540 820 L1340 740 Z" />
    <path d="M280 700 L520 640 L620 740 L520 860 L320 820 Z" />
  </g>
  <g stroke="#1e2b3f" stroke-width="1" opacity="0.4">
    <path d="M0 256 H2048" />
    <path d="M0 512 H2048" />
    <path d="M0 768 H2048" />
    <path d="M256 0 V1024" />
    <path d="M512 0 V1024" />
    <path d="M768 0 V1024" />
    <path d="M1024 0 V1024" />
    <path d="M1280 0 V1024" />
    <path d="M1536 0 V1024" />
    <path d="M1792 0 V1024" />
  </g>
</svg>
